<?xml version="1.0" encoding="UTF-8"?>
<svg width="24" height="24" viewBox="0 0 24 24" fill="none" xmlns="http://www.w3.org/2000/svg">
  <path d="M8 4V16C8 17.1046 8.89543 18 10 18H18C19.1046 18 20 17.1046 20 16V7.24162C20 6.7034 19.7831 6.18789 19.4 5.8L16.2 2.6C15.8121 2.21691 15.2966 2 14.7584 2H10C8.89543 2 8 2.89543 8 4Z" stroke="black" stroke-width="2" stroke-linecap="round" stroke-linejoin="round"/>
  <path d="M16 18V20C16 21.1046 15.1046 22 14 22H6C4.89543 22 4 21.1046 4 20V8C4 6.89543 4.89543 6 6 6H8" stroke="black" stroke-width="2" stroke-linecap="round" stroke-linejoin="round"/>
</svg> 